<?xml version="1.0" encoding="UTF-8" standalone="no"?>
<!-- Generator: Adobe Illustrator 15.0.0, SVG Export Plug-In . SVG Version: 6.00 Build 0)  -->

<svg
   xmlns:dc="http://purl.org/dc/elements/1.1/"
   xmlns:cc="http://creativecommons.org/ns#"
   xmlns:rdf="http://www.w3.org/1999/02/22-rdf-syntax-ns#"
   xmlns:svg="http://www.w3.org/2000/svg"
   xmlns="http://www.w3.org/2000/svg"
   xmlns:sodipodi="http://sodipodi.sourceforge.net/DTD/sodipodi-0.dtd"
   xmlns:inkscape="http://www.inkscape.org/namespaces/inkscape"
   version="1.1"
   id="Ebene_1"
   x="0px"
   y="0px"
   width="214.328px"
   height="223px"
   viewBox="0 0 214.328 223"
   enable-background="new 0 0 214.328 223"
   xml:space="preserve"
   inkscape:version="0.48.2 r9819"
   sodipodi:docname="google-plus.svg"><metadata
   id="metadata3057"><rdf:RDF><cc:Work
       rdf:about=""><dc:format>image/svg+xml</dc:format><dc:type
         rdf:resource="http://purl.org/dc/dcmitype/StillImage" /><dc:title /></cc:Work></rdf:RDF></metadata><defs
   id="defs3055" /><sodipodi:namedview
   pagecolor="#ffffff"
   bordercolor="#666666"
   borderopacity="1"
   objecttolerance="10"
   gridtolerance="10"
   guidetolerance="10"
   inkscape:pageopacity="0"
   inkscape:pageshadow="2"
   inkscape:window-width="733"
   inkscape:window-height="480"
   id="namedview3053"
   showgrid="false"
   inkscape:zoom="1.058296"
   inkscape:cx="164.85613"
   inkscape:cy="111.54189"
   inkscape:window-x="68"
   inkscape:window-y="150"
   inkscape:window-maximized="0"
   inkscape:current-layer="g3045" />
<g
   id="g3045">
	<path
   clip-rule="evenodd"
   d="m 214.94492,211.94492 c 0,6.627 -5.373,12 -12,12 H 12.944912 c -6.6269996,0 -11.99999963,-5.373 -11.99999963,-12 V 12.944915 c 0,-6.6269999 5.37300003,-11.99999986 11.99999963,-11.99999986 H 202.94492 c 6.627,0 12,5.37299996 12,11.99999986 V 211.94492 z"
   id="path3047"
   inkscape:connector-curvature="0"
   style="fill-rule:evenodd" />
	
	
<rect
   style="fill:#ffffff;fill-opacity:1;fill-rule:nonzero;stroke:#ffffff;stroke-width:0;stroke-linecap:butt;stroke-linejoin:miter;stroke-miterlimit:4;stroke-opacity:1;stroke-dasharray:none"
   id="rect3004"
   width="193.70763"
   height="196.54237"
   x="9.4491501"
   y="17.008474" /><path
   style="fill:#000000"
   d="m 0.10892629,12.644954 c 0,0 -0.1324329,173.296686 0.1648545,187.454386 -0.109371,10.57652 7.66562831,18.73621 17.65872921,18.73621 7.222173,0.0219 171.22152,0.0742 178.06842,-0.10933 6.80807,-0.006 19.30183,-7.69148 19.29182,-17.54443 0.18933,-8.02963 -0.0745,-188.439108 -0.0745,-188.439108 -73.74577,0.05347 -148.916763,-0.09321 -215.10932201,-0.09765 z M 151.75035,49.984955 l 7.80406,0 0,26.416142 24.15868,0 0,8.654866 -24.15868,0 0,27.168777 -7.80406,0 0,-27.168777 -24.15867,0 0,-8.654866 24.15867,0 z m -29.72331,0.22578 -4.7503,3.048006 c -3.14456,2.027917 -6.32938,3.048018 -9.56847,3.048018 l -4.88602,0 4.3092,5.381067 c 6.98212,8.796861 8.42241,19.87404 3.90203,29.953361 -0.93414,2.082911 -4.5818,6.813366 -8.10943,10.498733 -9.082492,9.48866 -8.952481,11.89402 1.3233,21.48665 9.01875,8.41919 12.65952,13.65207 14.01338,20.13197 2.77011,13.25835 -6.0158,28.12269 -20.222708,34.16791 -7.224843,3.07426 -26.01231,4.40956 -33.319967,2.37068 -15.473244,-4.31716 -23.69032,-17.57721 -19.170857,-30.89411 1.554223,-4.57963 8.213547,-12.12134 13.334773,-15.05195 4.773808,-2.73178 16.656683,-5.76404 22.665721,-5.79498 l 4.071687,0 -2.307289,-4.89189 c -1.739294,-3.70069 -2.093889,-6.01132 -1.560813,-9.7085 0.647398,-4.48992 0.510144,-4.81866 -1.526883,-4.10165 -3.612085,1.27141 -13.670996,-1.66102 -18.254727,-5.34344 -5.557103,-4.46442 -10.01965,-14.248023 -9.907771,-21.674809 0.182423,-12.10949 6.239116,-22.097691 16.897499,-27.921348 l 7.396897,-4.026381 22.835377,-0.338669 z m -42.141953,6.171282 c -0.304008,-0.0037 -0.614738,0.05647 -0.916129,0.07526 -4.822299,0.29975 -9.248559,3.416838 -11.434653,9.219312 -3.877983,10.293144 1.222494,30.027043 9.330948,36.08704 10.084286,7.53666 22.903236,-0.64471 22.903236,-14.600395 0,-6.070436 -3.717178,-18.221842 -7.023659,-23.029468 -3.503865,-5.094623 -8.299541,-7.661931 -12.859743,-7.714118 z m 5.089608,76.990693 c -7.079001,0.33218 -16.295128,3.11246 -20.120917,6.13365 -4.165748,3.28967 -6.345045,8.25743 -6.345045,14.41223 0,8.72717 5.700709,15.79502 15.472409,19.11599 5.907083,2.00752 21.544302,0.90497 25.719487,-1.80624 5.068821,-3.29154 7.808941,-7.83017 8.414811,-13.96068 0.64048,-6.48058 -1.92152,-11.14532 -10.281002,-18.70204 -5.144006,-4.65003 -6.358649,-5.19291 -11.468583,-5.19291 -0.450676,0 -0.919224,-0.0221 -1.39116,0 z"
   id="path3031"
   inkscape:connector-curvature="0"
   sodipodi:nodetypes="ccccccccccccccccccccccccsssssssscccsssscccccccssscccccsssssccc" /></g>
</svg>